<?xml version="1.0" encoding="UTF-8"?>
<svg id="Layer_1" data-name="Layer 1" xmlns="http://www.w3.org/2000/svg" viewBox="0 0 392.17 392.17">
  <defs>
    <style>
      .cls-1 {
        fill: none;
      }
    </style>
  </defs>
  <path class="cls-1" d="M193.41,392.17H0V0h392.17v392.17h-192.65c1.85-1.42,3.26-2.02,4.91-3.88,10.81-12.21,25.23-38.02,34.4-52.75,30.1-48.38,74.82-121.62,87.22-176.52C343.87,80.06,282.04,4.06,202.24.73,118.11-2.78,48.18,74.88,66.74,158.4c11.43,51.46,51.31,117.89,78.96,163.38,11.69,19.24,28.5,49.6,42.5,66.06,1.77,2.08,3.04,2.86,5.22,4.34Z"/>
  <path d="M199.53,392.17h-6.12c-2.18-1.48-3.45-2.26-5.22-4.34-13.99-16.46-30.8-46.82-42.5-66.06-27.65-45.49-67.53-111.92-78.96-163.38C48.18,74.88,118.11-2.78,202.24.73c79.8,3.33,141.64,79.33,123.81,158.28-12.4,54.91-57.12,128.14-87.22,176.52-9.16,14.73-23.58,40.54-34.4,52.75-1.65,1.86-3.06,2.46-4.91,3.88ZM192.49,20.87c-73.64,2.41-123.93,72.55-103.25,143.32,16.8,57.47,62.36,131.42,95.44,182.06,2.69,4.12,7.38,12.44,10.37,15.62.53.56.68,1.54,1.79,1.26,31.76-48.61,63.69-99.08,88.2-151.85,14.77-31.8,29.1-64.71,21.92-100.44-10.77-53.61-59.87-91.74-114.47-89.96Z"/>
  <path class="cls-1" d="M192.49,20.87c54.6-1.79,103.7,36.35,114.47,89.96,7.18,35.74-7.15,68.64-21.92,100.44-24.51,52.77-56.44,103.24-88.2,151.85-1.11.28-1.26-.7-1.79-1.26-2.99-3.17-7.68-11.5-10.37-15.62-33.08-50.63-78.65-124.59-95.44-182.06C68.55,93.41,118.84,23.27,192.49,20.87ZM192.49,59.09c-66.72,3.89-94.42,87.4-43.01,130.47,40.4,33.85,103.08,14.3,117.7-35.91,14.18-48.69-24.08-97.51-74.69-94.56Z"/>
  <path d="M192.49,59.09c50.61-2.95,88.87,45.87,74.69,94.56-14.63,50.21-77.3,69.76-117.7,35.91-51.4-43.07-23.71-126.59,43.01-130.47ZM188.65,79.72c-23.94,2.7-43.77,24.61-45.69,48.34-3.78,46.89,50.88,76.52,87.5,46.22,41.51-34.36,13.08-100.75-41.81-94.56Z"/>
  <path class="cls-1" d="M188.65,79.72c54.89-6.19,83.32,60.2,41.81,94.56-36.62,30.31-91.28.68-87.5-46.22,1.92-23.74,21.75-45.64,45.69-48.34Z"/>
</svg>