<?xml version="1.0" encoding="UTF-8"?>
<svg id="Layer_1" data-name="Layer 1" xmlns="http://www.w3.org/2000/svg" viewBox="0 0 817.04 817.03">
  <path d="M700.99,121.6c222.52,223.99,108.21,616.41-199.83,684.97C218.83,869.4-32.66,640.47,3.47,353.87,46.03,16.35,462.7-118.27,700.99,121.6ZM397.14,51.54C113.98,58.92-49.03,381.18,116.53,614.56c147.98,208.6,461.31,199.16,596.23-18.4,145.95-235.36-21.71-537.72-294.93-544.91l-20.7.28Z"/>
  <path d="M240.08,212.49c9.17-1.56,17,.34,23.8,6.72,18.53,17.35,37.33,41.93,54.94,61.06,25.25,27.42,50.6,54.78,76.24,81.84,6.79-.9,12.76-2.49,19.77-1.85,2.94.27,13.55,4.01,14.48,3.55l65.53-62.56c23.75-17.46,50.36,13.38,30.52,34.52l-68.56,66.52c6.3,42.57-39.49,70.74-75.78,47.78-12.35-7.81-21.65-24.73-21.72-39.37-.04-8.65,4.53-10.02-1.99-17.92-39.44-47.81-87.06-92.19-127.48-139.52-12.25-11.96-7.59-37.74,10.25-40.77Z"/>
  <path d="M665.1,386.51c10.43-1.51,35.91-1.23,46.78-.3,31.12,2.68,30.8,41.8.84,44.91-11.65,1.21-42.91,1.28-53.36-2.4-21.33-7.52-17.43-38.86,5.74-42.22Z"/>
  <path d="M102.1,386.51c10.83-1.46,35.61-1.26,46.78-.29,27.16,2.34,28.79,37.23,5.51,43.58-9.49,2.59-46.6,2.59-56.09,0-22.77-6.22-21.68-39.85,3.8-43.28Z"/>
  <path d="M406.15,647.47c12.13-.68,22.88,8.09,24.2,20.27.97,8.96,1.04,46.23-1.51,53.5-7.56,21.53-40.98,16.87-43.5-5.49-1.03-9.19-1.28-43.19.45-51.56s11.71-16.24,20.37-16.72Z"/>
  <path d="M403.08,80.49c11.64-2.01,25.79,4.34,27.26,17.26,1.06,9.35,1.34,46.15-.44,54.56-4.57,21.55-40.89,20.16-43.56-3.55-1.12-9.91-1.33-42.37.24-51.77,1.22-7.31,9.24-15.25,16.5-16.5Z"/>
</svg>