<?xml version="1.0" encoding="UTF-8"?>
<svg id="Layer_1" data-name="Layer 1" xmlns="http://www.w3.org/2000/svg" viewBox="0 0 456.11 519.82">
  <path d="M407.7,428.7h37.5c5.34,0,9.94,7.48,10.5,12.49,1.45,12.8-.37,21.31-14.47,22.52-25.09,2.15-52.9-3.53-77.53,2.47-58.36,14.21-117.27,38.15-175.74,53.2-10.14,1.89-15.41-2.14-16.3-12.21l.49-423.18c1.06-4.33,3.98-8.13,8.28-9.72l119.29-35.67.99-1.5c-1.63-.73-3.73.99-4.5.99H85.7v415.09c0,3.91-6.33,10.15-10.56,10.43-19.9-1.29-42.39,1.94-61.97.1-3.52-.33-6.7-1.15-9.36-3.64-5.63-5.25-5.02-24.45,1.97-28.8.61-.38,6.09-2.57,6.43-2.57h36.5V8.61C48.7,4.57,56.91-.71,61.15.08l338.57.51c3.34.57,7.97,5.96,7.97,9.02v419.09ZM223.42,234.12c-19.01,3.9-18.37,34.7,1.77,36.74,30.37,3.08,27.18-42.68-1.77-36.74Z"/>
</svg>