<?xml version="1.0" encoding="UTF-8"?>
<svg id="Layer_1" data-name="Layer 1" xmlns="http://www.w3.org/2000/svg" viewBox="-20 -20 1482.52 528.32" overflow="visible">
  <defs>
    <style>
      .cls-1 {
        fill: none;
      }
      .glow-outline {
        fill: none;
        stroke: #ef4444;
        stroke-width: 8;
        filter: url(#glow);
        stroke-dasharray: 3000;
        stroke-dashoffset: 3000;
        animation: dash 1.5s linear forwards;
      }
      @keyframes dash {
        to {
          stroke-dashoffset: 0;
        }
      }
    </style>
    <filter id="glow" x="-40%" y="-40%" width="180%" height="180%">
      <feGaussianBlur stdDeviation="12" result="coloredBlur"/>
      <feMerge>
        <feMergeNode in="coloredBlur"/>
        <feMergeNode in="SourceGraphic"/>
      </feMerge>
    </filter>
  </defs>
  <path class="glow-outline" d="M342.73,104.65l8.01,104.93,44.13-104.77,59.07.08c7.83.77,5.03,12.19,5.87,18.11,1.31,9.25,3.67,20.2,7.1,28.87,11.01,27.82,44.27,36.7,47.62,70.32.41,4.12-1.29,14.36-.38,16.34,1.74,3.76,12.8,10.91,16.94,12.07,15.25,4.26,30.29-2.87,27.47-20.48-1.78-11.15-20.67-18.47-28.84-25.13-33.95-27.68-20.79-82.63,17.55-99.21,24.77-10.71,61.48-6.21,79.3,15.35l-26.95,33c-1.84,1.51-4.03-3.4-6.01-5.02-10.62-8.72-28.92-11.2-35.19,3.81-7.98,19.11,15.25,25.37,26.66,34.7,9.12,7.45,19.01,20.59,20.4,32.57,6.38,54.63-39.24,85-89.61,70.61-6.08-1.74-29.54-12.56-30.05-18.91-.3-3.71,17.37-17.12,20.09-25.54,4.79-14.79.46-27.6-11.94-36.58-17.73-12.84-37.83-1.71-55.29-13.16-13.35,82.89-32.02,164.8-50.78,246.55-20.67,22.3-52.36,39.96-82.8,44.13-57.62,7.9-64.51-30.96-25.83-64.8,16.77-14.67,37.21-24.98,58.45-31.51,3.31-1.02,14.13-2.54,15.46-4.53,15.77-63.36,30.62-126.89,41.53-191.33-1.07-1.6-1.2.78-1.49,1.5-12.5,31.05-26.13,61.82-39.5,92.44-1.35.82-28.58,1.03-31.5.49-1.14-.21-2.02-.34-2.36-1.64l-5.14-89.82-2-1.48-15,92.94h-41.98l31.99-184.89h55Z"/>
  <path class="glow-outline" d="M1324.28,88.16c-.28,1.52-3.06,7.56-5.44,6.55l-175.02-1.01c-6.95.11-2.96-12.43-1.96-17.05,17.11-79.19,132.32-108.03,173.66-33.2,88.69,11.77,145.57,91.14,121.43,179.33-18.3,66.86-81.23,116.33-148.93,125.92-35.64,59.25-118.37,50.1-151.17-7.19-3.36-5.87-12.04-25.43-11.47-31.48.1-1.08.59-1.93,1.41-2.61l42.11-.86c2.62-.05,5.06-1.04,7.91-1.09,38.97-.64,78.01.58,116.99.05,6.1,1.12,2.59,14.61,2.99,18.98,73.76-23.22,127.13-107.14,100.48-183.39-11.8-33.78-38.73-59.96-72.98-70.44-.67,5.26.92,12.53,0,17.49h-.01Z"/>
  <path class="glow-outline" d="M1080.39,144.63l7.61-40.04,144.82.06,2.36,1.64,7.63,63.32,31.99-64.96h49.48l-66.45,117.95-11.7,65.25-1.31,1.69h-45.48l11.81-67.47-18.3-84.44-2.11,7.07c-8.77,1.07-21.67-1.63-29.88-.07-1.18.22-1.97.37-2.29,1.71l-25.18,143.22h-45.98l24.99-144.91h-31.99l-.02-.02Z"/>
  <path class="glow-outline" d="M694.34,100.93c122.75-13.81,73.14,222.97-35.2,190.55-73.94-22.13-39.37-182.16,35.2-190.55ZM697.3,144.87c-16.84,2.86-26.84,36.2-29.41,50.54-2.26,12.62-6.86,51,11.23,54.1,22.54,3.85,34-31.71,37.14-48.71,2.83-15.32,7.12-60.35-18.96-55.93h0Z"/>
  <path class="glow-outline" d="M236.78,104.65l10,184.89h-46.98v-32.98h-35.98l-13.49,32.98h-47.48l80.46-184.89h53.48-.01ZM199.8,219.58l-1.5-54.98-20.49,54.98h21.99Z"/>
  <polygon class="glow-outline" points="1084.39 104.65 1077.29 145.53 1031.34 146.06 1025.41 175.61 1069.39 175.61 1062.29 214.48 1019.35 215.02 1013.42 247.57 1064.4 247.57 1057.4 289.54 961.44 289.54 993.43 104.65 1084.39 104.65"/>
  <path class="glow-outline" d="M879.47,159.62c-7.76-11.75-18.28-19.94-32.5-12.03-22.7,12.63-32.61,60.76-26.99,84.01,5.71,23.61,24.49,21.84,40.01,7.96,1.61-1.44,1.88-4.4,4.48-3.99,4.84,10.88,13.97,20.85,19.17,31.3.68,1.37,2.21,2.95,1.39,4.65-.87,1.8-14.24,11.62-16.88,13.18-37.53,22.26-83.76,6.77-94.55-36.72-11.32-45.63,8.51-114.37,51.23-138.51,27.07-15.29,68.1-12.68,85.39,15.68l-30.76,34.46h.01Z"/>
  <path class="glow-outline" d="M130.83,104.65c-7.17,41.94-12.77,84.43-21.3,126.11-3.17,15.48-6.23,31.96-16.26,44.7-25.62,32.54-87.19,22.56-93.27-21.23l38.35-17.69c2.65,15.25,17.69,20.85,22.98,3.98l23.72-134.19,1.31-1.69h44.48,0Z"/>
  <polygon class="glow-outline" points="969.44 104.65 937.45 289.54 890.48 289.54 922.46 104.65 969.44 104.65"/>
  <path class="cls-1" d="M697.3,144.87c26.08-4.43,21.79,40.6,18.96,55.93-3.14,17-14.6,52.56-37.14,48.71-18.08-3.09-13.48-41.48-11.23-54.1,2.56-14.34,12.56-47.68,29.41-50.54h0Z"/>
  <polygon class="cls-1" points="199.8 219.58 177.81 219.58 198.3 164.61 199.8 219.58"/>
</svg>