<?xml version="1.0" encoding="UTF-8"?>
<svg id="Layer_1" data-name="Layer 1" xmlns="http://www.w3.org/2000/svg" viewBox="0 0 2160 1620">
  <defs>
    <style>
      .cls-1 {
        fill: none;
      }
      .glow-outline {
        fill: none;
        stroke: #ef4444;
        stroke-width: 8;
        filter: url(#glow);
        stroke-dasharray: 3000;
        stroke-dashoffset: 3000;
        animation: dash 1.5s linear forwards;
      }
      @keyframes dash {
        to {
          stroke-dashoffset: 0;
        }
      }
    </style>
    <filter id="glow" x="-40%" y="-40%" width="180%" height="180%">
      <feGaussianBlur stdDeviation="12" result="coloredBlur"/>
      <feMerge>
        <feMergeNode in="coloredBlur"/>
        <feMergeNode in="SourceGraphic"/>
      </feMerge>
    </filter>
  </defs>
  <path class="glow-outline" d="M1781.18,561.15c-.28,1.52-3.06,7.56-5.44,6.55l-175.02-1.01c-6.95.11-2.96-12.43-1.96-17.05,17.11-79.19,132.32-108.03,173.66-33.2,88.69,11.77,145.57,91.14,121.43,179.33-18.3,66.86-81.23,116.33-148.93,125.92-35.64,59.25-118.37,50.1-151.17-7.19-3.36-5.87-12.04-25.43-11.47-31.48.1-1.08.59-1.93,1.41-2.61l42.11-.86c2.62-.05,5.06-1.04,7.91-1.09,38.97-.64,78.01.58,116.99.05,6.1,1.12,2.59,14.61,2.99,18.98,73.76-23.22,127.13-107.14,100.48-183.39-11.8-33.78-38.73-59.96-72.98-70.44-.67,5.26.92,12.53,0,17.49Z"/>
  <path class="glow-outline" d="M1537.29,617.62l7.61-40.04,144.82.06,2.36,1.64,7.63,63.32,31.99-64.96h49.48l-66.45,117.95-11.7,65.25-1.31,1.69h-45.48l11.81-67.47-18.3-84.44-2.11,7.07c-8.77,1.07-21.67-1.63-29.88-.07-1.18.22-1.97.37-2.29,1.71l-25.18,143.22h-45.98l24.99-144.91h-31.99Z"/>
  <path class="glow-outline" d="M1151.24,573.92c122.75-13.81,73.14,222.97-35.2,190.55-73.94-22.13-39.37-182.16,35.2-190.55ZM1154.2,617.86c-16.84,2.86-26.84,36.2-29.41,50.54-2.26,12.62-6.86,51,11.23,54.1,22.54,3.85,34-31.71,37.14-48.71,2.83-15.32,7.12-60.35-18.96-55.93Z"/>
  <path class="glow-outline" d="M693.68,577.64l10,184.89h-46.98v-32.98h-35.98l-13.49,32.98h-47.48l80.46-184.89h53.48ZM656.7,692.57l-1.5-54.98-20.49,54.98h21.99Z"/>
  <polygon class="glow-outline" points="1541.29 577.64 1534.19 618.52 1488.24 619.05 1482.31 648.6 1526.29 648.6 1519.19 687.47 1476.25 688.01 1470.32 720.56 1521.3 720.56 1514.3 762.53 1418.34 762.53 1450.33 577.64 1541.29 577.64"/>
  <path class="glow-outline" d="M1336.37,632.61c-7.76-11.75-18.28-19.94-32.5-12.03-22.7,12.63-32.61,60.76-26.99,84.01,5.71,23.61,24.49,21.84,40.01,7.96,1.61-1.44,1.88-4.4,4.48-3.99,4.84,10.88,13.97,20.85,19.17,31.3.68,1.37,2.21,2.95,1.39,4.65-.87,1.8-14.24,11.62-16.88,13.18-37.53,22.26-83.76,6.77-94.55-36.72-11.32-45.63,8.51-114.37,51.23-138.51,27.07-15.29,68.1-12.68,85.39,15.68l-30.76,34.46Z"/>
  <path class="glow-outline" d="M587.73,577.64c-7.17,41.94-12.77,84.43-21.3,126.11-3.17,15.48-6.23,31.96-16.26,44.7-25.62,32.54-87.19,22.56-93.27-21.23l38.35-17.69c2.65,15.25,17.69,20.85,22.98,3.98l23.72-134.19,1.31-1.69h44.48Z"/>
  <polygon class="glow-outline" points="1426.34 577.64 1394.35 762.53 1347.38 762.53 1379.36 577.64 1426.34 577.64"/>
  <path class="glow-outline" d="M1154.2,617.86c26.08-4.43,21.79,40.6,18.96,55.93-3.14,17-14.6,52.56-37.14,48.71-18.08-3.09-13.48-41.48-11.23-54.1,2.56-14.34,12.56-47.68,29.41-50.54Z"/>
  <polygon class="glow-outline" points="656.7 692.57 634.71 692.57 655.2 637.6 656.7 692.57"/>
</svg>